# xmcd
#
# Track frame offsets:
#	150
#	18807
#	43197
#	59660
#	77050
#	92155
#	111347
#	120285
#	140187
#	155920
#	169927
#	181937
#	196890
#	217880
#	232342
#	253452
#	273600
#	287775
#
# Disc length: 4019 seconds
#
# Revision: 0
# Processed by: cddbd v1.5PL3 Copyright (c) Steve Scherf et al.
# Submitted via: audiograbber 1.81.02
#
DISCID=190fb112
DTITLE=The Winniers 2004 - The Winners 2004 - Disk 2
DYEAR=2004
DGENRE=Country
TTITLE0=John Williamson - True Blue - 21st Anniversary
TTITLE1=Melinda Schneider - Cootamundra Wattle
TTITLE2=Michael Bryers - Fall Like Rain
TTITLE3=Darren Coggan - If I Had My Time Again
TTITLE4=Dianna Corcoran - I'll Fly Away
TTITLE5=Arthur Blanch - Australia's Robin Hood
TTITLE6=Michael Fix - Two Left Feet
TTITLE7=Lee Kernaghan - Diamantina Drover
TTITLE8=Tom Maxwell - Gidgee After Rain
TTITLE9=Jake Nicholai - Home Run
TTITLE10=Laurel Edwards - C'mon Down
TTITLE11=Carter and Carter with Darren Coggan - Busy Man
TTITLE12=Graeme Connors - The Simple Truth
TTITLE13=Adam Harvey and Gina Jefferys - The Kokoda Anthem (Battle For Australia)
TTITLE14=Davidson Brothers - Orange Blossom Special
TTITLE15=Brendon Walmsley - Now I'm Easy
TTITLE16=Sara Storer and John Williamson - The Plains
TTITLE17=Sovereign - Tooraweenah Cowgirl
EXTD=
EXTT0=
EXTT1=
EXTT2=
EXTT3=
EXTT4=
EXTT5=
EXTT6=
EXTT7=
EXTT8=
EXTT9=
EXTT10=
EXTT11=
EXTT12=
EXTT13=
EXTT14=
EXTT15=
EXTT16=
EXTT17=
PLAYORDER=
